G04 #@! TF.FileFunction,Legend,Top*
%FSLAX46Y46*%
G04 Gerber Fmt 4.6, Leading zero omitted, Abs format (unit mm)*
G04 Created by KiCad (PCBNEW 4.0.2+dfsg1-stable) date Mon 27 Feb 2017 07:22:47 PM EST*
%MOMM*%
G01*
G04 APERTURE LIST*
%ADD10C,0.100000*%
%ADD11C,0.150000*%
G04 APERTURE END LIST*
D10*
D11*
X115353500Y-84354000D02*
X116903500Y-84354000D01*
X120713500Y-84074000D02*
X118173500Y-84074000D01*
X118173500Y-84074000D02*
X118173500Y-81534000D01*
X116903500Y-81254000D02*
X115353500Y-81254000D01*
X115353500Y-81254000D02*
X115353500Y-84354000D01*
X118173500Y-81534000D02*
X120713500Y-81534000D01*
X120713500Y-81534000D02*
X120713500Y-84074000D01*
X135725500Y-81063500D02*
X134175500Y-81063500D01*
X130365500Y-81343500D02*
X132905500Y-81343500D01*
X132905500Y-81343500D02*
X132905500Y-83883500D01*
X134175500Y-84163500D02*
X135725500Y-84163500D01*
X135725500Y-84163500D02*
X135725500Y-81063500D01*
X132905500Y-83883500D02*
X130365500Y-83883500D01*
X130365500Y-83883500D02*
X130365500Y-81343500D01*
X122783000Y-84290500D02*
X124333000Y-84290500D01*
X128143000Y-84010500D02*
X125603000Y-84010500D01*
X125603000Y-84010500D02*
X125603000Y-81470500D01*
X124333000Y-81190500D02*
X122783000Y-81190500D01*
X122783000Y-81190500D02*
X122783000Y-84290500D01*
X125603000Y-81470500D02*
X128143000Y-81470500D01*
X128143000Y-81470500D02*
X128143000Y-84010500D01*
X121168501Y-90657500D02*
X121168500Y-110637500D01*
X121168500Y-110637500D02*
X131688499Y-110637500D01*
X131688499Y-110637500D02*
X131688500Y-90657500D01*
X131688500Y-90657500D02*
X128181833Y-90657500D01*
X128181833Y-90657500D02*
X128181833Y-91107500D01*
X128181833Y-91107500D02*
X124675167Y-91107500D01*
X124675167Y-91107500D02*
X124675167Y-90657500D01*
X124675167Y-90657500D02*
X121168501Y-90657500D01*
X125984000Y-113347500D02*
X128524000Y-113347500D01*
X123164000Y-113067500D02*
X124714000Y-113067500D01*
X125984000Y-113347500D02*
X125984000Y-115887500D01*
X124714000Y-116167500D02*
X123164000Y-116167500D01*
X123164000Y-116167500D02*
X123164000Y-113067500D01*
X125984000Y-115887500D02*
X128524000Y-115887500D01*
X128524000Y-115887500D02*
X128524000Y-113347500D01*
X116165405Y-78156381D02*
X116165405Y-77156381D01*
X116546358Y-77156381D01*
X116641596Y-77204000D01*
X116689215Y-77251619D01*
X116736834Y-77346857D01*
X116736834Y-77489714D01*
X116689215Y-77584952D01*
X116641596Y-77632571D01*
X116546358Y-77680190D01*
X116165405Y-77680190D01*
X117689215Y-78156381D02*
X117117786Y-78156381D01*
X117403500Y-78156381D02*
X117403500Y-77156381D01*
X117308262Y-77299238D01*
X117213024Y-77394476D01*
X117117786Y-77442095D01*
X132842167Y-88118262D02*
X132985024Y-88165881D01*
X133223120Y-88165881D01*
X133318358Y-88118262D01*
X133365977Y-88070643D01*
X133413596Y-87975405D01*
X133413596Y-87880167D01*
X133365977Y-87784929D01*
X133318358Y-87737310D01*
X133223120Y-87689690D01*
X133032643Y-87642071D01*
X132937405Y-87594452D01*
X132889786Y-87546833D01*
X132842167Y-87451595D01*
X132842167Y-87356357D01*
X132889786Y-87261119D01*
X132937405Y-87213500D01*
X133032643Y-87165881D01*
X133270739Y-87165881D01*
X133413596Y-87213500D01*
X133746929Y-87165881D02*
X133985024Y-88165881D01*
X134175501Y-87451595D01*
X134365977Y-88165881D01*
X134604072Y-87165881D01*
X135508834Y-88165881D02*
X134937405Y-88165881D01*
X135223119Y-88165881D02*
X135223119Y-87165881D01*
X135127881Y-87308738D01*
X135032643Y-87403976D01*
X134937405Y-87451595D01*
X122999667Y-78045262D02*
X123142524Y-78092881D01*
X123380620Y-78092881D01*
X123475858Y-78045262D01*
X123523477Y-77997643D01*
X123571096Y-77902405D01*
X123571096Y-77807167D01*
X123523477Y-77711929D01*
X123475858Y-77664310D01*
X123380620Y-77616690D01*
X123190143Y-77569071D01*
X123094905Y-77521452D01*
X123047286Y-77473833D01*
X122999667Y-77378595D01*
X122999667Y-77283357D01*
X123047286Y-77188119D01*
X123094905Y-77140500D01*
X123190143Y-77092881D01*
X123428239Y-77092881D01*
X123571096Y-77140500D01*
X123904429Y-77092881D02*
X124142524Y-78092881D01*
X124333001Y-77378595D01*
X124523477Y-78092881D01*
X124761572Y-77092881D01*
X125094905Y-77188119D02*
X125142524Y-77140500D01*
X125237762Y-77092881D01*
X125475858Y-77092881D01*
X125571096Y-77140500D01*
X125618715Y-77188119D01*
X125666334Y-77283357D01*
X125666334Y-77378595D01*
X125618715Y-77521452D01*
X125047286Y-78092881D01*
X125666334Y-78092881D01*
X125514214Y-88800357D02*
X125514214Y-89771786D01*
X125571357Y-89886071D01*
X125628500Y-89943214D01*
X125742786Y-90000357D01*
X125971357Y-90000357D01*
X126085643Y-89943214D01*
X126142786Y-89886071D01*
X126199929Y-89771786D01*
X126199929Y-88800357D01*
X127399929Y-90000357D02*
X126714214Y-90000357D01*
X127057072Y-90000357D02*
X127057072Y-88800357D01*
X126942786Y-88971786D01*
X126828500Y-89086071D01*
X126714214Y-89143214D01*
X125935095Y-115209381D02*
X125935095Y-116018905D01*
X125982714Y-116114143D01*
X126030333Y-116161762D01*
X126125571Y-116209381D01*
X126316048Y-116209381D01*
X126411286Y-116161762D01*
X126458905Y-116114143D01*
X126506524Y-116018905D01*
X126506524Y-115209381D01*
X126935095Y-115304619D02*
X126982714Y-115257000D01*
X127077952Y-115209381D01*
X127316048Y-115209381D01*
X127411286Y-115257000D01*
X127458905Y-115304619D01*
X127506524Y-115399857D01*
X127506524Y-115495095D01*
X127458905Y-115637952D01*
X126887476Y-116209381D01*
X127506524Y-116209381D01*
X119542571Y-115403214D02*
X119590190Y-115260357D01*
X119637810Y-115212738D01*
X119733048Y-115165119D01*
X119875905Y-115165119D01*
X119971143Y-115212738D01*
X120018762Y-115260357D01*
X120066381Y-115355595D01*
X120066381Y-115736548D01*
X119066381Y-115736548D01*
X119066381Y-115403214D01*
X119114000Y-115307976D01*
X119161619Y-115260357D01*
X119256857Y-115212738D01*
X119352095Y-115212738D01*
X119447333Y-115260357D01*
X119494952Y-115307976D01*
X119542571Y-115403214D01*
X119542571Y-115736548D01*
X119066381Y-114879405D02*
X119066381Y-114307976D01*
X120066381Y-114593691D02*
X119066381Y-114593691D01*
X120066381Y-113450833D02*
X120066381Y-114022262D01*
X120066381Y-113736548D02*
X119066381Y-113736548D01*
X119209238Y-113831786D01*
X119304476Y-113927024D01*
X119352095Y-114022262D01*
M02*
