M48
;DRILL file {KiCad 4.0.2+dfsg1-stable} date Mon 27 Feb 2017 07:23:09 PM EST
;FORMAT={-:-/ absolute / inch / decimal}
FMAT,2
INCH,TZ
T1C0.030
T2C0.031
T3C0.040
%
G90
G05
M72
T1
X4.555Y-3.455
X4.555Y-3.5546
X4.555Y-3.6542
X4.555Y-3.7538
X4.555Y-3.8534
X4.555Y-3.953
X4.555Y-4.0526
X4.555Y-4.1522
X4.555Y-4.2519
X4.555Y-4.3515
X5.355Y-3.455
X5.355Y-3.5546
X5.355Y-3.6542
X5.355Y-3.7538
X5.355Y-3.8534
X5.355Y-3.953
X5.355Y-4.0526
X5.355Y-4.1522
X5.355Y-4.2519
X5.355Y-4.3515
T2
X4.8295Y-3.6125
X4.8295Y-3.7125
X4.8295Y-3.8125
X4.8295Y-3.9125
X4.8295Y-4.0125
X4.8295Y-4.1125
X4.8295Y-4.2125
X4.8295Y-4.3125
X5.1255Y-3.6125
X5.1255Y-3.7125
X5.1255Y-3.8125
X5.1255Y-3.9125
X5.1255Y-4.0125
X5.1255Y-4.1125
X5.1255Y-4.2125
X5.1255Y-4.3125
T3
X4.6025Y-3.26
X4.7025Y-3.26
X4.895Y-3.2575
X4.91Y-4.5125
X4.995Y-3.2575
X5.01Y-4.5125
X5.1825Y-3.2525
X5.2825Y-3.2525
T0
M30
